# xmcd
#
# Track frame offsets:
#	150
#	11030
#	22233
#	32466
#	41809
#	50402
#	60043
#	70026
#	80357
#	92249
#	103924
#	115149
#	128059
#	139653
#	152094
#	161694
#	171506
#	184276
#	196420
#	205682
#	216459
#	226981
#	237213
#	248082
#	261878
#	273722
#
# Disc length: 3813 seconds
#
# Revision: 1
# Processed by: cddbd v1.5.2PL0 Copyright (c) Steve Scherf et al.
# Submitted via: audiograbber 1.83.01
#
DISCID=750ee31a
DTITLE=Dolly Parton and Porter Wagoner - Just Between You And Me [CD 2)
DYEAR=2014
DGENRE=Country
TTITLE0=Just Someone I Used To Know
TTITLE1=No Reason To Hurry Home
TTITLE2=Milwaukee, Here I Come
TTITLE3=The House Where Love Lives
TTITLE4=Why Don't You Haul Off And Love Me
TTITLE5=Mendy Never Sleeps
TTITLE6=I Don't Believe You've Met My Baby
TTITLE7=Anything's Better Than Nothing
TTITLE8=Always, Always
TTITLE9=My Hands Are Tied
TTITLE10=There Never Was A Time
TTITLE11=Forty Miles From Poplar Bluff
TTITLE12=Each Season Changes You
TTITLE13=Daddy Was An Old Time Preacher Man
TTITLE14=Tangled Vines
TTITLE15=We Can't Let This Happen To Us
TTITLE16=Tomorrow Is Forever
TTITLE17=Silver Sandals
TTITLE18=No Love Left
TTITLE19=I'm Wasting Your Time And You're Wasting Mine
TTITLE20=Run That By Me One More Time
TTITLE21=It Might As Well Be Me
TTITLE22=I Know You're Married But I Love You Still
TTITLE23=Daddy Was An Old Time Preacher Man
TTITLE24=Fight And Scratch
TTITLE25=A Good Understanding
EXTD=
EXTT0=
EXTT1=
EXTT2=
EXTT3=
EXTT4=
EXTT5=
EXTT6=
EXTT7=
EXTT8=
EXTT9=
EXTT10=
EXTT11=
EXTT12=
EXTT13=
EXTT14=
EXTT15=
EXTT16=
EXTT17=
EXTT18=
EXTT19=
EXTT20=
EXTT21=
EXTT22=
EXTT23=
EXTT24=
EXTT25=
PLAYORDER=
